<?xml version="1.0" standalone="no"?>
<!DOCTYPE svg PUBLIC "-//W3C//DTD SVG 20010904//EN"
 "http://www.w3.org/TR/2001/REC-SVG-20010904/DTD/svg10.dtd">
<svg version="1.0" xmlns="http://www.w3.org/2000/svg"
 width="344.000000pt" height="344.000000pt" viewBox="0 0 344.000000 344.000000"
 preserveAspectRatio="xMidYMid meet">
<metadata>
Created by potrace 1.14, written by Peter Selinger 2001-2017
</metadata>
<g transform="translate(0.000000,344.000000) scale(0.100000,-0.100000)"
fill="#000000" stroke="none">
<path d="M321 2859 c-43 -9 -90 -56 -100 -100 -12 -55 -6 -2070 6 -2099 13
-31 50 -66 83 -78 15 -5 589 -9 1420 -8 1104 1 1400 4 1417 14 12 7 35 29 50
49 l28 36 1 1031 c0 635 -3 1043 -9 1061 -11 33 -41 71 -72 88 -28 16 -927 19
-918 3 5 -8 3 -8 -8 0 -16 13 -1839 16 -1898 3z"/>
</g>
</svg>
