<?xml version="1.0" standalone="no"?>
<!DOCTYPE svg PUBLIC "-//W3C//DTD SVG 20010904//EN"
 "http://www.w3.org/TR/2001/REC-SVG-20010904/DTD/svg10.dtd">
<svg version="1.0" xmlns="http://www.w3.org/2000/svg"
 width="700.000000pt" height="700.000000pt" viewBox="0 0 700.000000 700.000000"
 preserveAspectRatio="xMidYMid meet">
<metadata>
Created by potrace 1.14, written by Peter Selinger 2001-2017
</metadata>
<g transform="translate(0.000000,700.000000) scale(0.100000,-0.100000)"
fill="#000000" stroke="none">
<path d="M1357 6043 c-143 -18 -256 -63 -372 -148 -164 -121 -270 -285 -311
-486 -16 -78 -17 -213 -17 -1919 l0 -1835 22 -90 c26 -103 84 -226 142 -302
127 -163 326 -279 531 -308 44 -6 4266 -6 4298 0 14 3 36 7 49 10 343 68 607
359 639 704 4 42 7 886 6 1876 -1 1788 -1 1801 -22 1885 -40 165 -106 279
-231 400 -78 75 -111 98 -210 145 -94 44 -182 66 -286 72 -55 3 -1011 6 -2123
6 -1507 2 -2047 -1 -2115 -10z m4283 -442 c104 -29 201 -117 241 -219 l23 -57
1 -1810 c1 -1685 0 -1814 -16 -1867 -41 -137 -146 -231 -286 -255 -26 -5 -984
-8 -2128 -8 l-2080 0 -65 25 c-87 32 -177 119 -210 205 l-24 60 0 1825 0 1825
22 55 c43 109 162 209 272 228 23 4 978 7 2123 6 1635 0 2092 -3 2127 -13z"/>
<path d="M2300 4589 c-56 -10 -84 -25 -122 -63 -57 -57 -76 -137 -51 -219 13
-44 49 -84 393 -428 l378 -379 -377 -378 c-411 -411 -411 -412 -404 -515 10
-148 167 -241 304 -179 33 14 163 138 504 480 253 253 469 478 479 498 25 47
26 136 2 185 -19 40 -926 953 -968 975 -39 21 -99 31 -138 23z"/>
<path d="M3734 2834 c-92 -23 -151 -100 -159 -205 -6 -85 55 -175 142 -210 35
-15 939 -19 998 -5 165 39 225 240 109 360 -68 70 -56 69 -578 70 -307 1 -484
-3 -512 -10z"/>
</g>
</svg>
